<?xml version="1.0"?>
<svg xmlns="http://www.w3.org/2000/svg" height="512px" viewBox="0 0 496 496" width="512px"><path d="m488 96h8v-96h-496v96h8c13.230469 0 24 10.769531 24 24s-10.769531 24-24 24h-8v96h128v78.054688c0 22.898437 8.496094 44.488281 24 61.167968v20.777344h-16v48h16v48h192v-48h16v-48h-16v-36.777344c15.503906-16.679687 24-38.269531 24-61.167968v-62.054688h128v-96h-8c-13.230469 0-24-10.769531-24-24s10.769531-24 24-24zm-160 384h-160v-32h160zm16-48h-192v-16h192zm8-129.945312c0 19.753906-7.6875 38.320312-21.65625 52.289062l-2.34375 2.34375v43.3125h-160v-27.3125l-2.34375-2.34375c-13.96875-13.96875-21.65625-32.535156-21.65625-52.289062v-118.054688c0-4.40625 3.59375-8 8-8 13.230469 0 24 10.769531 24 24v52l3.199219 2.398438c18.03125 13.53125 28.800781 35.058593 28.800781 57.601562h16c0-26.191406-11.886719-51.265625-32-67.878906v-20.121094h160zm128-142.863282v64.808594h-64v-24h-16v24h-208v-8c0-22.054688-17.945312-40-40-40-13.230469 0-24 10.769531-24 24v24h-32v-24h-16v24h-64v-64.808594c18.230469-3.710937 32-19.871094 32-39.191406s-13.769531-35.480469-32-39.191406v-64.808594h64v24h16v-24h304v24h16v-24h64v64.808594c-18.230469 3.710937-32 19.878906-32 39.191406s13.769531 35.480469 32 39.191406zm0 0" fill="#5CDDE6"/><path d="m248 32c-48.519531 0-88 39.480469-88 88s39.480469 88 88 88 88-39.480469 88-88-39.480469-88-88-88zm0 160c-39.695312 0-72-32.304688-72-72s32.304688-72 72-72 72 32.304688 72 72-32.304688 72-72 72zm0 0" fill="#5CDDE6"/><path d="m219.558594 89.34375 8.882812 13.3125 19.558594-13.039062v70.382812h16v-88h-18.425781zm0 0" fill="#5CDDE6"/><path d="m80 56h16v32h-16zm0 0" fill="#5CDDE6"/><path d="m80 104h16v32h-16zm0 0" fill="#5CDDE6"/><path d="m80 152h16v32h-16zm0 0" fill="#5CDDE6"/><path d="m400 56h16v32h-16zm0 0" fill="#5CDDE6"/><path d="m400 104h16v32h-16zm0 0" fill="#5CDDE6"/><path d="m400 152h16v32h-16zm0 0" fill="#5CDDE6"/><path d="m432 312h16v16h-16zm0 0" fill="#5CDDE6"/><path d="m432 344h16v16h-16zm0 0" fill="#5CDDE6"/><path d="m448 328h16v16h-16zm0 0" fill="#5CDDE6"/><path d="m416 328h16v16h-16zm0 0" fill="#5CDDE6"/><path d="m56 256h16v16h-16zm0 0" fill="#5CDDE6"/><path d="m56 288h16v16h-16zm0 0" fill="#5CDDE6"/><path d="m72 272h16v16h-16zm0 0" fill="#5CDDE6"/><path d="m40 272h16v16h-16zm0 0" fill="#5CDDE6"/><path d="m32 432h16v16h-16zm0 0" fill="#5CDDE6"/><path d="m32 464h16v16h-16zm0 0" fill="#5CDDE6"/><path d="m48 448h16v16h-16zm0 0" fill="#5CDDE6"/><path d="m16 448h16v16h-16zm0 0" fill="#5CDDE6"/><path d="m392 432h16v16h-16zm0 0" fill="#5CDDE6"/><path d="m392 464h16v16h-16zm0 0" fill="#5CDDE6"/><path d="m408 448h16v16h-16zm0 0" fill="#5CDDE6"/><path d="m376 448h16v16h-16zm0 0" fill="#5CDDE6"/></svg>
