<?xml version="1.0"?>
<svg xmlns="http://www.w3.org/2000/svg" id="Layer_5" enable-background="new 0 0 64 64" height="512px" viewBox="0 0 64 64" width="512px"><path d="m16 11c-2.757 0-5 2.243-5 5s2.243 5 5 5 5-2.243 5-5-2.243-5-5-5zm0 8c-1.654 0-3-1.346-3-3s1.346-3 3-3 3 1.346 3 3-1.346 3-3 3z" fill="#5CDDE6"/><path d="m48 11c-2.757 0-5 2.243-5 5s2.243 5 5 5 5-2.243 5-5-2.243-5-5-5zm0 8c-1.654 0-3-1.346-3-3s1.346-3 3-3 3 1.346 3 3-1.346 3-3 3z" fill="#5CDDE6"/><path d="m63 19.784v-7.568l-2.794-.687c-.123-.332-.262-.664-.416-.995l1.492-2.466-5.351-5.351-2.466 1.493c-.33-.154-.662-.293-.994-.416l-.687-2.794h-7.568l-.687 2.794c-.332.123-.664.262-.994.416l-2.467-1.492-5.351 5.351 1.492 2.466c-.154.331-.293.663-.416.995l-2.793.686v7.568l2.794.687c.066.177.147.354.222.53-.766.003-1.459.302-1.988.779-.532-.48-1.229-.78-2-.78s-1.468.301-2 .78c-.532-.48-1.229-.78-2-.78-.015 0-.03.003-.045.004.075-.178.158-.355.224-.533l2.793-.687v-7.568l-2.794-.687c-.123-.332-.262-.664-.416-.995l1.492-2.466-5.351-5.351-2.466 1.493c-.33-.154-.662-.293-.994-.416l-.687-2.794h-7.568l-.687 2.794c-.332.123-.664.262-.994.416l-2.467-1.492-5.35 5.351 1.492 2.466c-.154.331-.293.663-.416.995l-2.794.686v7.568l2.794.687c.123.333.262.665.416.995l-1.492 2.466.762.761c-1.515 1.285-2.48 3.198-2.48 5.335 0 3.86 3.141 7 7 7h13.027v.487c0 1.87.729 3.627 2.051 4.95l.949.95v5.585h-2v14h20v-14h-2v-5.585l.95-.95c1.322-1.322 2.05-3.08 2.05-4.95v-.487h9.275l10.5-7-4.571-3.047 3.05-3.05-1.492-2.466c.154-.331.293-.663.416-.995zm-40.973 15.244h-5v-4.027l8 .007v1.02c0 1.654-1.345 3-3 3zm-13.027-19.028c0-3.86 3.141-7 7-7s7 3.14 7 7-3.141 7-7 7-7-3.14-7-7zm16.027 13.008-8-.007v-3.973h8zm-10-3.98v10h-2v-10zm-8.79-3.974c-.298-.573-.541-1.153-.723-1.727l-.17-.534-2.344-.577v-4.432l2.347-.577.169-.536c.181-.571.424-1.151.722-1.725l.259-.499-1.256-2.072 3.134-3.135 2.072 1.255.498-.258c.572-.297 1.153-.54 1.728-.722l.534-.17.577-2.345h4.432l.577 2.345.534.17c.574.182 1.155.425 1.728.722l.498.258 2.072-1.255 3.134 3.134-1.255 2.073.259.499c.298.574.541 1.154.722 1.725l.169.536 2.346.577v4.432l-2.347.577-.169.536c-.181.571-.424 1.151-.722 1.725l-.245.471.269.495c-.259.293-.468.63-.597 1.008h-3.582c2.065-1.651 3.393-4.185 3.393-7.028 0-4.962-4.037-9-9-9s-9 4.038-9 9c0 2.843 1.328 5.377 3.393 7.028h-2.393c-.97 0-1.894.199-2.734.557l1.23-2.032zm-3.237 8.974c0-2.757 2.243-5 5-5h3.027v10h-3.027c-2.757 0-5-2.243-5-5zm37.027 20.972v2h-16v-2zm-16 10v-6h16v6zm17-23.485c0 1.336-.52 2.591-1.464 3.536l-1.536 1.535v6.414h-12v-6.414l-1.535-1.536c-.931-.931-1.465-2.22-1.465-3.536v-.588c2.279-.465 4-2.484 4-4.899v-8.027c0-.551.448-1 1-1s1 .449 1 1v6 6h2v-6-6c0-.551.448-1 1-1s1 .449 1 1v6 6h2v-6-6c0-.551.448-1 1-1s1 .449 1 1v12h2v-12c0-.551.448-1 1-1s1 .449 1 1zm2-12.487h7.973v3.999l-7.973-.004zm4.973-2.028c-3.859 0-7-3.14-7-7s3.141-7 7-7 7 3.14 7 7-3.141 7-7 7zm-4.973 8.023 7.973.004v4.001h-7.973zm9.973 3.136v-8.263l6.197 4.132zm5.759-10.534-2.224 2.224-3.547-2.364c2.417-1.615 4.012-4.367 4.012-7.485 0-4.962-4.037-9-9-9s-9 4.038-9 9c0 1.872.576 3.612 1.558 5.054-.173-.031-.349-.054-.531-.054-.581 0-1.119.173-1.579.46l-.211-.406c-.298-.574-.541-1.154-.722-1.725l-.169-.536-2.346-.577v-4.432l2.347-.577.169-.536c.181-.571.424-1.151.722-1.725l.259-.499-1.255-2.073 3.134-3.134 2.072 1.255.498-.258c.572-.297 1.153-.54 1.728-.722l.534-.17.576-2.345h4.432l.577 2.345.534.17c.574.182 1.155.425 1.728.722l.498.258 2.072-1.255 3.134 3.134-1.255 2.073.259.499c.298.574.541 1.154.722 1.725l.169.536 2.346.577v4.432l-2.347.577-.169.536c-.181.571-.424 1.151-.722 1.725l-.259.499z" fill="#5CDDE6"/><path d="m44 49h2v2h-2z" fill="#5CDDE6"/><path d="m44 53h2v2h-2z" fill="#5CDDE6"/><path d="m44 57h2v2h-2z" fill="#5CDDE6"/><path d="m44 61h2v2h-2z" fill="#5CDDE6"/><path d="m18 49h2v2h-2z" fill="#5CDDE6"/><path d="m18 53h2v2h-2z" fill="#5CDDE6"/><path d="m18 57h2v2h-2z" fill="#5CDDE6"/><path d="m18 61h2v2h-2z" fill="#5CDDE6"/></svg>
