<svg height="512pt" viewBox="0 0 512 512" width="512pt" xmlns="http://www.w3.org/2000/svg"><path d="m422 151h-30l-30 30v90h90v-90zm0 0" fill="#5b5555"/><path d="m362 91h90v90h-90zm0 0" fill="#c4d9f2"/><path d="m422 286v211h-332v-211l166-150zm0 0" fill="#e3eeff"/><path d="m422 286v211h-166v-361zm0 0" fill="#c4d9f2"/><path d="m181 391h151v106h-151zm0 0" fill="#766e6e"/><path d="m256 391h76v106h-76zm0 0" fill="#5b5555"/><path d="m256 271c-24.902344 0-45 20.097656-45 45 0 24.898438 20.097656 45 45 45s46-20.101562 46-45c0-24.902344-21.097656-45-46-45zm0 0" fill="#73e6d3"/><path d="m256 361v-90c24.902344 0 46 20.097656 46 45 0 24.898438-21.097656 45-46 45zm0 0" fill="#6cb"/><path d="m510.5 309.097656-49.5 36.601563-205-174.898438-205 174.898438-49.5-36.601563 254.5-217.5zm0 0" fill="#f77e00"/><path d="m510.5 309.097656-49.5 36.601563-205-174.898438v-79.203125zm0 0" fill="#d55f05"/><path d="m0 482h512v30h-512zm0 0" fill="#daf569"/><g fill="#b9df47"><path d="m256 482h256v30h-256zm0 0"/><path d="m467 0c-24.621094 0-46.316406 12.085938-60 30.464844-13.683594-18.378906-35.378906-30.464844-60-30.464844h-45v46c0 41.351562 33.648438 75 75 75h60c41.351562 0 75-33.648438 75-75v-46zm0 0"/></g></svg>