<?xml version="1.0" encoding="utf-8"?>
<!-- Generator: Adobe Illustrator 22.1.0, SVG Export Plug-In . SVG Version: 6.00 Build 0)  -->
<svg version="1.1" id="whatsapp" xmlns="http://www.w3.org/2000/svg" xmlns:xlink="http://www.w3.org/1999/xlink" x="0px" y="0px"
	 width="528px" height="48px" viewBox="0 0 528 48" style="enable-background:new 0 0 528 48;" xml:space="preserve">
<style type="text/css">
	.st0{fill:#FFFFFF;}
	.st1{fill:#7E57C2;}
	.st2{fill:#039BE5;}
	.st3{fill:#1976D2;}
	.st4{fill:#CFD8DC;}
	.st5{fill:#40C351;}
	.st6{fill:url(#SVGID_1_);}
	.st7{fill:url(#SVGID_2_);}
	.st8{fill:url(#SVGID_3_);}
	.st9{fill:url(#SVGID_4_);}
	.st10{fill:url(#SVGID_5_);}
	.st11{fill:url(#SVGID_6_);}
	.st12{fill:url(#SVGID_7_);}
	.st13{fill:url(#SVGID_8_);}
</style>
<path class="st0" d="M19,15.2c-2,0-8,0-11.3,3c-2,2-2.9,4.8-2.9,9v2.3c0,4.1,0.9,7,2.9,9c1,0.9,2.4,1.6,4,2.1l0.5,0.2v4
	c0,0.5,0.1,0.5,0.2,0.5c0.1,0,0.2,0,0.5-0.3c0.1-0.1,0.6-0.6,3-3.3l0.2-0.3l0.4,0c0.8,0.1,1.6,0.1,2.5,0.1c2,0,8,0,11.3-3
	c2-2,2.9-4.8,2.9-9v-2.3c0-4.1-0.9-7-2.9-9C27,15.2,21,15.2,19,15.2z"/>
<path class="st1" d="M26.1,33.1c-0.8-0.7-1.2-0.9-2.4-1.6c-0.5-0.3-1.2-0.5-1.6-0.5c-0.3,0-0.6,0.2-0.8,0.4
	c-0.5,0.5-0.7,1.1-1.5,1.1c-0.8,0-2.3-0.9-3.4-2c-1.1-1.1-2-2.5-2-3.4c0-0.9,0.6-1,1.1-1.5c0.2-0.2,0.4-0.5,0.4-0.8
	c0-0.4-0.2-1.1-0.5-1.6c-0.7-1.2-0.9-1.5-1.6-2.4c-0.2-0.3-0.5-0.4-0.8-0.4c-0.5,0-1.1,0.2-1.5,0.6c-0.6,0.5-1.3,1.1-1.5,1.9
	c0,0.1,0,0.2,0,0.3c0,0.8,0.3,1.7,0.7,2.4c0.8,1.7,2,3.4,3.2,4.8c0.4,0.5,0.8,0.9,1.2,1.3c0.4,0.4,0.9,0.9,1.3,1.2
	c1.5,1.2,3.1,2.3,4.8,3.2c0.7,0.4,1.6,0.7,2.4,0.7c0.1,0,0.2,0,0.4,0c0.8-0.2,1.5-0.8,1.9-1.5c0.3-0.4,0.6-1.1,0.6-1.5
	C26.5,33.6,26.4,33.4,26.1,33.1z M26.5,29.5c-0.4,0-0.8-0.3-0.8-0.8V28c0-3.7-3-6.8-6.8-6.8c-0.4,0-0.8-0.3-0.8-0.8s0.3-0.8,0.8-0.8
	c4.5,0,8.3,3.7,8.3,8.3v0.8C27.3,29.2,26.9,29.5,26.5,29.5z M21.9,28c-0.3,0-0.6-0.2-0.7-0.6c-0.2-0.8-0.8-1.4-1.6-1.6
	c-0.4-0.1-0.6-0.5-0.5-0.9c0.1-0.4,0.5-0.6,0.9-0.5c1.3,0.3,2.3,1.4,2.7,2.7c0.1,0.4-0.1,0.8-0.5,0.9C22,28,22,28,21.9,28z"/>
<path class="st1" d="M24.3,28.7c-0.4,0-0.8-0.3-0.8-0.8c0-2.4-1.9-4.4-4.3-4.5c-0.4,0-0.7-0.4-0.7-0.8s0.4-0.7,0.8-0.7c0,0,0,0,0,0
	c3.2,0.2,5.7,2.8,5.7,6C25,28.4,24.7,28.7,24.3,28.7z"/>
<path class="st1" d="M19,14.5c-3.4,0-8.6,0.3-11.8,3.2C4.9,20,4,23.2,4,27.2c0,0.3,0,0.7,0,1.1c0,0.4,0,0.8,0,1.1
	c0,4.1,0.9,7.3,3.2,9.5c1.2,1.1,2.7,1.8,4.3,2.3v3.4c0,1.2,0.8,1.2,0.9,1.2h0c0.4,0,0.7-0.2,1-0.5c0.1-0.1,1.5-1.7,3-3.4
	c0.9,0.1,1.8,0.1,2.5,0.1c3.4,0,8.6-0.3,11.8-3.2c2.3-2.3,3.2-5.4,3.2-9.5c0-0.3,0-0.7,0-1.1c0-0.4,0-0.8,0-1.1
	c0-4.1-0.9-7.3-3.2-9.5C27.6,14.8,22.4,14.5,19,14.5z M31.8,29.2v0.3c0,3.7-0.8,6.2-2.5,7.9C26.4,40,20.8,40,19,40
	c-0.6,0-1.5,0-2.5-0.1c-0.3,0.3-3.5,3.9-3.5,3.9v-4.4c-1.6-0.4-3.1-1-4.3-2c-1.7-1.7-2.5-4.2-2.5-7.9v-0.3c0-0.3,0-0.5,0-0.9
	c0-0.3,0-0.6,0-0.8v-0.3c0-3.7,0.8-6.2,2.5-7.9c2.9-2.6,8.5-2.6,10.3-2.6c1.8,0,7.4,0,10.3,2.6c1.7,1.7,2.5,4.2,2.5,7.9v0.3
	c0,0.3,0,0.5,0,0.9C31.8,28.7,31.8,29,31.8,29.2z"/>
<path class="st2" d="M212,13c-8.3,0-15,6.7-15,15s6.7,15,15,15s15-6.7,15-15S220.3,13,212,13z"/>
<path class="st0" d="M214,32h3.9l0.6-3.9H214v-2.2c0-1.6,0.5-3.1,2.1-3.1h2.5v-3.4c-0.4-0.1-1.3-0.2-3.1-0.2c-3.6,0-5.7,1.9-5.7,6.3
	V28H206V32h3.7v10.8c0.7,0.1,1.5,0.2,2.2,0.2c0.7,0,1.4-0.1,2-0.2C214,42.8,214,32,214,32z"/>
<path class="st3" d="M324,37.8c0,2.3-1.9,4.2-4.2,4.2h-21.7c-2.3,0-4.2-1.9-4.2-4.2V16.2c0-2.3,1.9-4.2,4.2-4.2h21.7
	c2.3,0,4.2,1.9,4.2,4.2V37.8z"/>
<path class="st0" d="M318.9,22c0-0.1,0.1-0.2,0.1-0.3c0-0.3-0.2-0.5-0.7-0.5h-2.2c-0.6,0-0.8,0.3-1,0.7c0,0-1.4,2.8-2.9,4.6
	c-0.5,0.5-0.8,0.5-1,0.5c-0.1,0-0.5-0.2-0.5-0.7V22c0-0.6-0.1-0.8-0.6-0.8h-3.9c-0.3,0-0.5,0.3-0.5,0.5c0,0.6,0.7,0.7,0.8,2.2v3
	c0,0.7-0.1,0.9-0.4,0.9c-0.7,0-2.2-2.5-3.2-5.8c-0.2-0.6-0.4-0.9-1-0.9h-2.2c-0.6,0-0.7,0.3-0.7,0.6c0,0.6,0.5,3.8,3.2,7.6
	c2,2.7,4.6,4.3,6.9,4.3c1.4,0,1.5-0.4,1.5-0.9v-2.5c0-0.7,0.2-0.8,0.6-0.8c0.3,0,1,0.2,2.2,1.7c1.4,1.7,1.7,2.5,2.5,2.5h2.2
	c0.5,0,0.8-0.2,0.8-0.6c0-0.1,0-0.2,0-0.4c-0.2-0.5-0.9-1.7-1.8-2.8c-0.5-0.6-1-1.2-1.3-1.6c-0.2-0.2-0.2-0.4-0.2-0.5
	c0-0.2,0.1-0.3,0.2-0.5C315.9,27.3,318.7,23.4,318.9,22z"/>
<path class="st0" d="M100.6,43.5l2.1-7.5c-1.3-2.2-1.9-4.7-1.9-7.3c0-8,6.5-14.5,14.5-14.5c3.9,0,7.6,1.5,10.3,4.3
	c2.7,2.7,4.3,6.4,4.3,10.3c0,8-6.5,14.5-14.5,14.5c0,0,0,0,0,0h0c-2.4,0-4.8-0.6-6.9-1.8C108.3,41.5,100.6,43.5,100.6,43.5z"/>
<path class="st0" d="M100.6,43.9c-0.2,0-0.4-0.2-0.4-0.4c0,0,0-0.1,0-0.1l2-7.4c-1.3-2.2-1.9-4.8-1.9-7.3c0-8.2,6.7-14.9,14.9-14.9
	c4,0,7.8,1.6,10.5,4.4c2.8,2.8,4.4,6.6,4.4,10.5c0,8.2-6.7,14.9-14.9,14.9c-2.4,0-4.8-0.6-7-1.7L100.6,43.9
	C100.7,43.9,100.7,43.9,100.6,43.9z"/>
<path class="st4" d="M115.3,14.2c3.9,0,7.6,1.5,10.3,4.3c2.7,2.7,4.3,6.4,4.3,10.3c0,8-6.5,14.5-14.5,14.5h0c-2.4,0-4.8-0.6-6.9-1.8
	l-7.7,2l2.1-7.5c-1.3-2.2-1.9-4.7-1.9-7.3C100.8,20.7,107.3,14.2,115.3,14.2 M115.3,13.5c-8.4,0-15.3,6.9-15.3,15.3
	c0,2.6,0.6,5.1,1.9,7.4l-2,7.2c-0.1,0.4,0.1,0.8,0.5,0.9c0.1,0,0.3,0,0.4,0l7.4-1.9c2.2,1.1,4.6,1.7,7,1.7c8.4,0,15.3-6.9,15.3-15.3
	c0-4.1-1.6-8-4.5-10.8C123.2,15.1,119.3,13.4,115.3,13.5z"/>
<path class="st5" d="M123.8,20.2c-2.3-2.3-5.3-3.5-8.5-3.5c-6.7,0-12.1,5.4-12.1,12.1c0,2.3,0.6,4.5,1.8,6.4l0.3,0.5l-1.2,4.5
	l4.6-1.2l0.4,0.3c1.9,1.1,4,1.7,6.1,1.7h0c6.7,0,12.1-5.4,12.1-12.1C127.4,25.6,126.1,22.5,123.8,20.2z"/>
<path class="st0" d="M111.7,22.7c-0.3-0.6-0.6-0.6-0.8-0.6c-0.2,0-0.5,0-0.7,0c-0.2,0-0.6,0.1-1,0.5c-0.3,0.4-1.3,1.2-1.3,3
	s1.3,3.5,1.5,3.8c0.2,0.2,2.5,4,6.2,5.5c3.1,1.2,3.7,1,4.4,0.9c0.7-0.1,2.1-0.9,2.5-1.7c0.3-0.8,0.3-1.6,0.2-1.7
	c-0.1-0.2-0.3-0.2-0.7-0.4c-0.4-0.2-2.1-1.1-2.5-1.2c-0.3-0.1-0.6-0.2-0.8,0.2c-0.2,0.4-0.9,1.2-1.1,1.4c-0.2,0.2-0.4,0.3-0.8,0.1
	c-0.4-0.2-1.5-0.6-2.9-1.8c-1.1-1-1.8-2.2-2-2.5c-0.2-0.4,0-0.6,0.2-0.7c0.2-0.2,0.4-0.4,0.5-0.6c0.2-0.2,0.2-0.4,0.4-0.6
	c0.1-0.2,0.1-0.5,0-0.6C112.7,25.2,112,23.4,111.7,22.7z"/>
<radialGradient id="SVGID_1_" cx="383.4189" cy="10.7644" r="33.0797" gradientTransform="matrix(1 0 0 -1 1.831055e-04 50)" gradientUnits="userSpaceOnUse">
	<stop  offset="0" style="stop-color:#FAE100"/>
	<stop  offset="5.440000e-02" style="stop-color:#FADC04"/>
	<stop  offset="0.1167" style="stop-color:#FBCE0E"/>
	<stop  offset="0.1829" style="stop-color:#FCB720"/>
	<stop  offset="0.2514" style="stop-color:#FE9838"/>
	<stop  offset="0.3054" style="stop-color:#FF7950"/>
	<stop  offset="0.4922" style="stop-color:#FF1C74"/>
	<stop  offset="1" style="stop-color:#6C1CD1"/>
</radialGradient>
<path class="st6" d="M406.8,18.4c-0.3-2.6-2.3-4.6-4.9-4.9c-6.4-0.7-12.8-0.7-19.3,0c-2.6,0.3-4.6,2.3-4.9,4.9
	c-0.7,6.4-0.7,12.8,0,19.3c0.3,2.6,2.3,4.6,4.9,4.9c6.4,0.7,12.8,0.7,19.3,0c2.6-0.3,4.6-2.3,4.9-4.9
	C407.4,31.2,407.4,24.8,406.8,18.4z"/>
<linearGradient id="SVGID_2_" gradientUnits="userSpaceOnUse" x1="388.7745" y1="23.9454" x2="337.9587" y2="52.5293" gradientTransform="matrix(1 0 0 -1 1.831055e-04 50)">
	<stop  offset="0" style="stop-color:#A1B5D8;stop-opacity:0"/>
	<stop  offset="0.3094" style="stop-color:#90A2BD;stop-opacity:0.3098"/>
	<stop  offset="0.7554" style="stop-color:#7C8B9C;stop-opacity:0.7569"/>
	<stop  offset="1" style="stop-color:#748290"/>
</linearGradient>
<path class="st7" d="M405.1,19.5c-0.2-2.3-2-4.1-4.3-4.3c-5.7-0.6-11.4-0.6-17.1,0c-2.3,0.2-4.1,2-4.3,4.3c-0.6,5.7-0.6,11.4,0,17.1
	c0.2,2.3,2,4.1,4.3,4.3c5.7,0.6,11.4,0.6,17.1,0c2.3-0.2,4.1-2,4.3-4.3C405.7,30.9,405.7,25.2,405.1,19.5z"/>
<linearGradient id="SVGID_3_" gradientUnits="userSpaceOnUse" x1="392.2679" y1="10.4997" x2="392.2679" y2="5.8242" gradientTransform="matrix(1 0 0 -1 1.831055e-04 50)">
	<stop  offset="0" style="stop-color:#FAE100;stop-opacity:0"/>
	<stop  offset="0.3068" style="stop-color:#FCA800;stop-opacity:0.3059"/>
	<stop  offset="0.6275" style="stop-color:#FE7300;stop-opacity:0.6275"/>
	<stop  offset="0.8685" style="stop-color:#FF5200;stop-opacity:0.8667"/>
	<stop  offset="1" style="stop-color:#FF4500"/>
</linearGradient>
<path class="st8" d="M377.7,37c0,0.2,0,0.4,0.1,0.6c0.3,2.6,2.3,4.6,4.9,4.9c6.4,0.7,12.8,0.7,19.3,0c2.6-0.3,4.6-2.3,4.9-4.9
	c0-0.2,0-0.4,0.1-0.6H377.7z"/>
<linearGradient id="SVGID_4_" gradientUnits="userSpaceOnUse" x1="390.5612" y1="23.7292" x2="383.1379" y2="31.1526" gradientTransform="matrix(1 0 0 -1 1.831055e-04 50)">
	<stop  offset="0" style="stop-color:#833AB4;stop-opacity:0"/>
	<stop  offset="1" style="stop-color:#833AB4"/>
</linearGradient>
<path class="st9" d="M406.8,37.7c0.4-3.4,0.5-6.9,0.5-10.4l-6.9-6.9c-0.9-1-2.1-1.6-3.6-1.6c-3-0.1-6.1-0.1-9.1,0
	c-2.5,0.1-4.3,1.8-4.7,4.3c-0.1,0.4-0.1,0.9-0.2,1.3v7.3c0,0.2,0.1,0.5,0.1,0.7c0.1,1.5,0.7,2.8,1.7,3.7l7,7c3.4,0,6.8-0.1,10.3-0.5
	C404.5,42.2,406.5,40.2,406.8,37.7z"/>
<linearGradient id="SVGID_5_" gradientUnits="userSpaceOnUse" x1="397.8274" y1="9.5435" x2="394.1223" y2="27.0106" gradientTransform="matrix(1 0 0 -1 1.831055e-04 50)">
	<stop  offset="0" style="stop-color:#833AB4;stop-opacity:0"/>
	<stop  offset="1" style="stop-color:#833AB4"/>
</linearGradient>
<path class="st10" d="M406.8,37.7c-0.3,2.6-2.3,4.6-4.9,4.9c-3.4,0.4-6.8,0.5-10.3,0.5l-7-7c0.8,0.7,1.9,1.1,3.1,1.2
	c3,0.1,6.1,0.1,9.1,0c2.7-0.1,4.7-2.1,4.8-4.9c0.1-2.9,0.1-5.8,0-8.7c0-1.3-0.5-2.4-1.2-3.2l6.9,6.9
	C407.3,30.8,407.1,34.2,406.8,37.7z"/>
<linearGradient id="SVGID_6_" gradientUnits="userSpaceOnUse" x1="399.2373" y1="15.0108" x2="384.3553" y2="29.8928" gradientTransform="matrix(1 0 0 -1 1.831055e-04 50)">
	<stop  offset="0" style="stop-color:#833AB4;stop-opacity:0"/>
	<stop  offset="1" style="stop-color:#833AB4"/>
</linearGradient>
<path class="st11" d="M395.8,24.8c-0.9-1-2.1-1.6-3.5-1.6c-2.7,0-4.8,2.2-4.8,4.8c0,1.4,0.6,2.7,1.6,3.5l11.1,11.1
	c0.6-0.1,1.2-0.1,1.8-0.2c2.6-0.3,4.6-2.3,4.9-4.9c0.1-0.6,0.1-1.2,0.2-1.8L395.8,24.8z"/>
<linearGradient id="SVGID_7_" gradientUnits="userSpaceOnUse" x1="400.3411" y1="24.0154" x2="395.42" y2="28.9366" gradientTransform="matrix(1 0 0 -1 1.831055e-04 50)">
	<stop  offset="0" style="stop-color:#833AB4;stop-opacity:0"/>
	<stop  offset="1" style="stop-color:#833AB4"/>
</linearGradient>
<path class="st12" d="M407.2,31.3l-8.9-8.9c-0.2-0.3-0.5-0.5-0.9-0.5c-0.6,0-1.1,0.5-1.1,1.1c0,0.4,0.2,0.7,0.5,0.9L407,34.3
	C407.1,33.3,407.2,32.3,407.2,31.3z"/>
<linearGradient id="SVGID_8_" gradientUnits="userSpaceOnUse" x1="398.2234" y1="27.8946" x2="386.0895" y2="15.7607" gradientTransform="matrix(1 0 0 -1 1.831055e-04 50)">
	<stop  offset="0" style="stop-color:#833AB4"/>
	<stop  offset="9.220000e-02" style="stop-color:#9C3495"/>
	<stop  offset="0.2927" style="stop-color:#DC2546"/>
	<stop  offset="0.392" style="stop-color:#FD1D1D"/>
	<stop  offset="0.5589" style="stop-color:#FC6831"/>
	<stop  offset="0.6887" style="stop-color:#FC9B40"/>
	<stop  offset="0.7521" style="stop-color:#FCAF45"/>
	<stop  offset="0.7806" style="stop-color:#FDB750"/>
	<stop  offset="0.8656" style="stop-color:#FECB6A"/>
	<stop  offset="0.9415" style="stop-color:#FFD87A"/>
	<stop  offset="1" style="stop-color:#FFDC80"/>
</linearGradient>
<path class="st13" d="M382.8,24.4c0.1-0.4,0.1-0.9,0.2-1.3c0.5-2.5,2.2-4.2,4.7-4.3c3-0.1,6.1-0.1,9.1,0c2.7,0.1,4.7,2.1,4.8,4.9
	c0.1,2.9,0.1,5.8,0,8.7c-0.1,2.7-2.1,4.8-4.8,4.9c-3,0.1-6.1,0.1-9.1,0c-2.7-0.1-4.6-2.1-4.8-4.9c0-0.2-0.1-0.5-0.1-0.7
	C382.8,29.2,382.8,26.8,382.8,24.4z M392.3,35.6c1.4,0,2.8,0,4.2,0c2.2-0.1,3.5-1.4,3.5-3.5c0.1-2.7,0.1-5.4,0-8.1
	c-0.1-2.2-1.4-3.5-3.5-3.5c-2.7-0.1-5.5-0.1-8.2,0c-2.1,0-3.5,1.3-3.5,3.5c-0.1,2.7-0.1,5.5,0,8.2c0.1,2.1,1.4,3.4,3.5,3.5
	C389.5,35.7,390.9,35.6,392.3,35.6z"/>
<g>
	<path class="st0" d="M382.8,24.4c0.1-0.4,0.1-0.9,0.2-1.3c0.5-2.5,2.2-4.2,4.7-4.3c3-0.1,6.1-0.1,9.1,0c2.7,0.1,4.7,2.1,4.8,4.9
		c0.1,2.9,0.1,5.8,0,8.7c-0.1,2.7-2.1,4.8-4.8,4.9c-3,0.1-6.1,0.1-9.1,0c-2.7-0.1-4.6-2.1-4.8-4.9c0-0.2-0.1-0.5-0.1-0.7
		C382.8,29.2,382.8,26.8,382.8,24.4z M392.3,35.6c1.4,0,2.8,0,4.2,0c2.2-0.1,3.5-1.4,3.5-3.5c0.1-2.7,0.1-5.4,0-8.1
		c-0.1-2.2-1.4-3.5-3.5-3.5c-2.7-0.1-5.5-0.1-8.2,0c-2.1,0-3.5,1.3-3.5,3.5c-0.1,2.7-0.1,5.5,0,8.2c0.1,2.1,1.4,3.4,3.5,3.5
		C389.5,35.7,390.9,35.6,392.3,35.6z"/>
	<path class="st0" d="M392.3,23.2c-2.7,0-4.8,2.2-4.8,4.8c0,2.7,2.2,4.8,4.8,4.8c2.7,0,4.8-2.2,4.8-4.8
		C397.1,25.4,394.9,23.2,392.3,23.2z M392.3,31.2c-1.7,0-3.2-1.4-3.2-3.2s1.4-3.2,3.2-3.2s3.2,1.4,3.2,3.2S394,31.2,392.3,31.2z"/>
	<path class="st0" d="M398.5,23c0,0.6-0.5,1.1-1.1,1.1c-0.6,0-1.1-0.5-1.1-1.1c0-0.6,0.5-1.1,1.1-1.1C398,21.9,398.5,22.4,398.5,23z
		"/>
</g>
</svg>
