<svg height="512pt" viewBox="0 -1 512 512" width="512pt" xmlns="http://www.w3.org/2000/svg"><path d="m497 0h-161c-8.285156 0-15 6.714844-15 15v65h-65c-8.285156 0-15 6.714844-15 15v65h-65c-8.285156 0-15 6.714844-15 15v65h-65c-8.285156 0-15 6.714844-15 15v65h-66c-8.285156 0-15 6.714844-15 15v160c0 8.285156 6.714844 15 15 15h482c8.285156 0 15-6.714844 15-15v-480c0-8.285156-6.714844-15-15-15zm0 0" fill="#ffcd00"/><path d="m497 0h-161c-8.285156 0-15 6.714844-15 15v65h-65v430h241c8.285156 0 15-6.714844 15-15v-480c0-8.285156-6.714844-15-15-15zm0 0" fill="#faaa00"/><path d="m191 350h130v50h-130zm0 0" fill="#d5873c"/><path d="m351 30h131v50h-131zm0 0" fill="#b96428"/><path d="m191 190h130v50h-130zm0 0" fill="#d5873c"/><path d="m111 270h130v50h-130zm0 0" fill="#d5873c"/><path d="m30 350h131v50h-131zm0 0" fill="#d5873c"/><path d="m30 430h51v50h-51zm0 0" fill="#d5873c"/><path d="m111 430h130v50h-130zm0 0" fill="#d5873c"/><g fill="#b96428"><path d="m351 350h131v50h-131zm0 0"/><path d="m271 270h130v50h-130zm0 0"/><path d="m351 190h131v50h-131zm0 0"/><path d="m431 110h51v50h-51zm0 0"/><path d="m431 270h51v50h-51zm0 0"/><path d="m271 110h130v50h-130zm0 0"/><path d="m256 350h65v50h-65zm0 0"/><path d="m256 190h65v50h-65zm0 0"/><path d="m271 430h130v50h-130zm0 0"/><path d="m431 430h51v50h-51zm0 0"/></g></svg>